<svg width="1043" height="295" viewBox="0 0 1043 295" fill="none" xmlns="http://www.w3.org/2000/svg">
<g clip-path="url(#clip0_15809_14892)">
<path d="M155.927 29.0483C124.386 52.1915 93.9402 74.5322 62.3452 97.6947C99.4001 111.768 134.546 125.097 171.671 139.19C171.555 127.817 171.671 117.408 171.671 105.773C178.28 104.755 182.459 104.998 188.868 106.398C228.614 115.194 261.084 135.752 284.69 169.126C299.612 190.194 304.528 213.758 298.159 239.192C297.596 241.469 296.647 243.652 295.336 245.874C296.921 229.158 294.607 213.954 280.923 202.119C247.89 272.551 180.609 295.147 126.738 285.641C71.3718 275.869 24.7813 231.33 14.2818 175.847C49.2623 214.066 90.6666 234.116 141.533 234.733C143.064 244.62 144.518 254.053 146.284 265.414C177.586 242.472 207.924 220.22 239.885 196.787C202.849 182.71 167.34 169.238 130.143 155.088C131.473 166.615 132.653 176.83 133.929 188.026C130.035 187.806 126.742 188.045 123.611 187.389C82.3147 178.686 46.6287 159.929 19.4564 127.084C2.23223 106.271 -4.44613 82.4176 3.03425 55.6327C3.52395 53.8851 5.76421 49.9346 7.12918 49.0589C5.16269 65.7942 7.53019 80.7433 21.4345 92.8492C38.7936 55.3047 65.7499 28.7397 104.224 14.9363C132.16 4.92137 160.589 4.28483 189.196 12.0777C245.723 27.5013 282.157 78.3206 286.834 115.923C276.731 107.401 266.868 98.0226 255.968 90.0831C230.033 71.2376 187.989 62.5343 155.885 61.6586" fill="url(#paint0_radial_15809_14892)"/>
</g>
<path d="M406.389 208.002C398.561 208.002 391.328 206.714 384.689 204.138C378.15 201.462 372.452 197.747 367.597 192.99C362.841 188.135 359.125 182.438 356.45 175.898C353.874 169.26 352.586 162.026 352.586 154.199C352.586 146.47 353.923 139.336 356.599 132.796C359.373 126.256 363.237 120.559 368.192 115.704C373.146 110.849 378.942 107.083 385.581 104.408C392.319 101.733 399.602 100.395 407.429 100.395C412.384 100.395 417.239 101.039 421.995 102.327C426.751 103.615 431.16 105.548 435.223 108.124C439.384 110.601 442.951 113.623 445.924 117.19L430.318 134.877C427.246 131.508 423.778 128.882 419.914 127C416.149 125.117 411.938 124.176 407.281 124.176C403.317 124.176 399.552 124.869 395.985 126.256C392.517 127.644 389.495 129.675 386.919 132.35C384.342 135.026 382.311 138.196 380.825 141.862C379.339 145.529 378.595 149.69 378.595 154.347C378.595 158.905 379.289 163.067 380.676 166.832C382.163 170.498 384.243 173.669 386.919 176.344C389.693 178.92 392.963 180.902 396.728 182.289C400.592 183.676 404.853 184.37 409.51 184.37C412.582 184.37 415.505 183.974 418.279 183.181C421.153 182.289 423.828 181.051 426.305 179.465C428.782 177.88 430.913 176.096 432.696 174.115L445.032 193.734C442.654 196.409 439.384 198.837 435.223 201.016C431.16 203.196 426.602 204.93 421.549 206.218C416.595 207.407 411.541 208.002 406.389 208.002ZM501.862 206.516V158.063C501.862 154 500.722 151.028 498.443 149.145C496.263 147.163 493.192 146.173 489.228 146.173C485.364 146.173 481.896 146.916 478.824 148.402C475.852 149.789 472.978 152.118 470.204 155.388L455.935 141.565C460.692 136.71 466.141 132.895 472.285 130.121C478.428 127.346 485.116 125.959 492.349 125.959C498.988 125.959 504.735 126.95 509.59 128.932C514.445 130.914 518.211 133.936 520.886 137.998C523.561 142.061 524.899 147.213 524.899 153.455V206.516H501.862ZM481.351 208.002C476.397 208.002 471.888 207.011 467.826 205.029C463.862 203.048 460.692 200.323 458.314 196.855C456.035 193.288 454.895 189.126 454.895 184.37C454.895 180.308 455.638 176.74 457.125 173.669C458.611 170.597 460.791 168.071 463.664 166.089C466.637 164.008 470.303 162.472 474.663 161.481C479.121 160.391 484.274 159.846 490.12 159.846H514.049L512.711 174.858H490.714C488.634 174.858 486.801 175.056 485.215 175.452C483.63 175.75 482.292 176.295 481.202 177.087C480.112 177.781 479.27 178.623 478.676 179.614C478.18 180.605 477.932 181.794 477.932 183.181C477.932 184.667 478.329 185.955 479.121 187.045C479.914 188.135 480.955 188.978 482.243 189.572C483.63 190.167 485.215 190.464 486.999 190.464C489.575 190.464 492.003 190.067 494.282 189.275C496.66 188.383 498.74 187.144 500.524 185.559C502.407 183.974 503.893 182.141 504.983 180.06L509.144 190.761C507.064 194.13 504.537 197.103 501.564 199.679C498.691 202.255 495.52 204.286 492.052 205.772C488.683 207.259 485.116 208.002 481.351 208.002ZM543.984 239.214V127.594H566.724L567.764 144.984L563.157 143.646C563.751 140.475 565.386 137.602 568.061 135.026C570.836 132.35 574.254 130.22 578.317 128.635C582.379 126.95 586.689 126.108 591.247 126.108C597.985 126.108 603.98 127.842 609.231 131.31C614.483 134.778 618.595 139.633 621.567 145.875C624.639 152.019 626.175 159.103 626.175 167.129C626.175 174.957 624.639 181.942 621.567 188.086C618.595 194.229 614.433 199.084 609.083 202.651C603.831 206.119 597.837 207.853 591.099 207.853C586.541 207.853 582.231 207.011 578.168 205.327C574.106 203.543 570.687 201.264 567.913 198.49C565.138 195.715 563.355 192.693 562.562 189.423L568.061 187.194V239.214H543.984ZM585.302 187.64C588.869 187.64 591.941 186.798 594.517 185.113C597.192 183.429 599.224 181.051 600.611 177.979C602.097 174.808 602.84 171.192 602.84 167.129C602.84 162.968 602.097 159.351 600.611 156.279C599.224 153.109 597.192 150.681 594.517 148.997C591.941 147.213 588.869 146.321 585.302 146.321C581.636 146.321 578.465 147.213 575.79 148.997C573.115 150.681 571.034 153.059 569.548 156.131C568.061 159.202 567.318 162.869 567.318 167.129C567.318 171.192 568.061 174.808 569.548 177.979C571.034 181.051 573.115 183.429 575.79 185.113C578.465 186.798 581.636 187.64 585.302 187.64ZM678.819 208.002C668.515 208.002 659.795 206.218 652.661 202.651C645.626 198.985 639.582 193.833 634.528 187.194L649.986 169.805C654.841 176.443 659.746 180.902 664.7 183.181C669.654 185.46 674.757 186.599 680.008 186.599C682.684 186.599 685.062 186.253 687.143 185.559C689.323 184.865 691.007 183.875 692.196 182.587C693.484 181.199 694.128 179.564 694.128 177.682C694.128 176.196 693.732 174.858 692.939 173.669C692.246 172.48 691.255 171.439 689.967 170.548C688.678 169.656 687.192 168.863 685.508 168.17C683.823 167.377 681.941 166.733 679.86 166.237C677.878 165.742 675.847 165.296 673.766 164.9C668.019 163.711 663.015 162.175 658.755 160.292C654.593 158.311 651.076 155.982 648.202 153.307C645.428 150.532 643.347 147.411 641.96 143.943C640.573 140.376 639.879 136.363 639.879 131.904C639.879 125.563 641.662 120.014 645.23 115.258C648.896 110.502 653.701 106.786 659.646 104.111C665.592 101.436 672.032 100.098 678.968 100.098C689.075 100.098 697.2 101.733 703.343 105.003C709.585 108.173 714.54 112.583 718.206 118.231L702.451 133.539C699.38 129.576 695.862 126.603 691.899 124.622C688.034 122.64 683.972 121.649 679.711 121.649C676.838 121.649 674.311 121.996 672.131 122.689C669.951 123.383 668.267 124.423 667.078 125.811C665.988 127.099 665.443 128.684 665.443 130.567C665.443 132.152 665.889 133.589 666.781 134.877C667.771 136.066 669.109 137.106 670.794 137.998C672.478 138.89 674.41 139.683 676.59 140.376C678.77 140.971 681.049 141.466 683.427 141.862C688.877 142.952 693.781 144.389 698.141 146.173C702.6 147.956 706.415 150.186 709.585 152.861C712.756 155.437 715.184 158.509 716.868 162.076C718.652 165.544 719.544 169.557 719.544 174.115C719.544 181.249 717.81 187.343 714.342 192.396C710.874 197.449 706.068 201.314 699.925 203.989C693.781 206.664 686.746 208.002 678.819 208.002ZM746.262 240.7L764.246 198.49L764.543 210.974L726.346 127.594H753.396L770.042 167.426C770.934 169.309 771.776 171.439 772.569 173.817C773.362 176.196 773.956 178.425 774.352 180.506L770.934 182.438C771.529 180.952 772.173 179.069 772.866 176.79C773.659 174.511 774.501 172.083 775.393 169.507L789.958 127.594H817.157L783.716 206.516L770.191 240.7H746.262ZM828.467 206.516V127.594H851.207L852.099 143.646L847.194 145.43C848.284 141.862 850.216 138.642 852.991 135.769C855.864 132.796 859.283 130.418 863.246 128.635C867.209 126.851 871.371 125.959 875.731 125.959C881.676 125.959 886.68 127.198 890.742 129.675C894.805 132.053 897.827 135.67 899.808 140.525C901.889 145.281 902.93 151.176 902.93 158.212V206.516H879V159.995C879 156.824 878.555 154.199 877.663 152.118C876.771 150.037 875.433 148.501 873.65 147.51C871.866 146.519 869.637 146.074 866.962 146.173C864.881 146.173 862.949 146.519 861.165 147.213C859.382 147.808 857.796 148.749 856.409 150.037C855.121 151.226 854.13 152.613 853.436 154.199C852.743 155.784 852.396 157.567 852.396 159.549V206.516H840.357C837.781 206.516 835.452 206.516 833.372 206.516C831.39 206.516 829.755 206.516 828.467 206.516ZM957.586 208.002C949.957 208.002 943.07 206.218 936.927 202.651C930.883 199.084 926.127 194.229 922.659 188.086C919.191 181.843 917.457 174.858 917.457 167.129C917.457 159.202 919.191 152.167 922.659 146.024C926.127 139.782 930.883 134.877 936.927 131.31C943.07 127.743 949.957 125.959 957.586 125.959C964.621 125.959 971.062 127.247 976.908 129.824C982.853 132.301 987.51 135.719 990.879 140.079L977.948 155.833C976.66 154.149 975.075 152.613 973.192 151.226C971.31 149.839 969.229 148.749 966.95 147.956C964.671 147.163 962.293 146.767 959.816 146.767C956.051 146.767 952.731 147.659 949.858 149.442C946.984 151.127 944.755 153.505 943.17 156.577C941.584 159.648 940.791 163.116 940.791 166.981C940.791 170.746 941.584 174.164 943.17 177.236C944.854 180.208 947.133 182.587 950.006 184.37C952.88 186.154 956.1 187.045 959.667 187.045C962.243 187.045 964.621 186.699 966.801 186.005C968.981 185.311 970.963 184.321 972.746 183.032C974.629 181.744 976.363 180.208 977.948 178.425L990.879 194.179C987.51 198.341 982.804 201.71 976.759 204.286C970.715 206.763 964.324 208.002 957.586 208.002Z" fill="url(#paint1_radial_15809_14892)"/>
<defs>
<radialGradient id="paint0_radial_15809_14892" cx="0" cy="0" r="1" gradientUnits="userSpaceOnUse" gradientTransform="translate(150.442 147.234) scale(179.223 167.343)">
<stop stop-color="#1E7CD8"/>
<stop offset="1" stop-color="#0024D4"/>
</radialGradient>
<radialGradient id="paint1_radial_15809_14892" cx="0" cy="0" r="1" gradientUnits="userSpaceOnUse" gradientTransform="translate(670.195 150.516) scale(385.984 110.792)">
<stop stop-color="#1E7CD8"/>
<stop offset="1" stop-color="#0024D4"/>
</radialGradient>
<clipPath id="clip0_15809_14892">
<rect width="300.881" height="280.943" fill="white" transform="translate(0 6.76465)"/>
</clipPath>
</defs>
</svg>
