<svg xmlns="http://www.w3.org/2000/svg" version="1.1" xmlns:xlink="http://www.w3.org/1999/xlink" xmlns:svgjs="http://svgjs.dev/svgjs" width="1000" height="151" viewBox="0 0 1000 151"><g transform="matrix(1,0,0,1,-0.6060606060606233,-0.14718890418238573)"><svg viewBox="0 0 396 60" data-background-color="#90adbb" preserveAspectRatio="xMidYMid meet" height="151" width="1000" xmlns="http://www.w3.org/2000/svg" xmlns:xlink="http://www.w3.org/1999/xlink"><g id="tight-bounds" transform="matrix(1,0,0,1,0.2400000000000091,0.058485657291015514)"><svg viewBox="0 0 395.52 59.883028685417976" height="59.883028685417976" width="395.52"><g><svg viewBox="0 0 532.7419818618569 80.65888799999999" height="59.883028685417976" width="395.52"><g><rect width="7.2377131938432" height="80.65888799999999" x="111.03737549041361" y="0" fill="#f6f6f6" opacity="1" stroke-width="0" stroke="transparent" fill-opacity="1" class="rect-qz-0" data-fill-palette-color="primary" rx="1%" id="qz-0" data-palette-color="#f6f6f6"></rect></g><g transform="matrix(1,0,0,1,137.22198186185682,0.20064399999999694)"><svg viewBox="0 0 395.52 80.2576" height="80.2576" width="395.52"><g id="textblocktransform"><svg viewBox="0 0 395.52 80.2576" height="80.2576" width="395.52" id="textblock"><g><svg viewBox="0 0 395.52 80.2576" height="80.2576" width="395.52"><g transform="matrix(1,0,0,1,0,0)"><svg width="395.52" viewBox="0 -29.5 239.99 48.7" height="80.2576" data-palette-color="#f6f6f6"><path d="M4.5 0L0 0 0-29.5 4.5-29.5 4.5 0ZM7.5 0L6 0 6-29.5 7.5-29.5 7.5 0ZM10.5 0L9 0 9-29.5 10.5-29.5 10.5 0ZM18 0L16.5 0 16.5-29.5 18-29.5 18 0ZM24 0L19.5 0 19.5-29.5 24-29.5 24 0ZM15.75 15.95L14.6 12.55 10.85 12.55 9.7 15.95 8.4 15.95 12.65 4.15 12.8 4.15 17.1 15.95 15.75 15.95ZM11.2 11.55L14.25 11.55 12.75 7.15 11.2 11.55ZM27 0L25.5 0 25.5-29.5 27-29.5 27 0ZM34.5 0L33 0 33-29.5 34.5-29.5 34.5 0ZM37.5 0L36 0 36-29.5 37.5-29.5 37.5 0ZM45 0L43.5 0 43.5-29.5 45-29.5 45 0ZM52.5 0L51 0 51-29.5 52.5-29.5 52.5 0ZM55.5 0L54 0 54-29.5 55.5-29.5 55.5 0ZM61.5 0L57 0 57-29.5 61.5-29.5 61.5 0ZM64.5 0L63 0 63-29.5 64.5-29.5 64.5 0ZM72 0L70.5 0 70.5-29.5 72-29.5 72 0ZM78 0L73.5 0 73.5-29.5 78-29.5 78 0ZM52.8 16.15L52.8 16.15Q52.05 16.15 51.4 15.8L51.4 15.8Q50.75 15.45 50.3 14.85L50.3 14.85 49.8 15.95 48.95 15.95 48.95 3.6 50.5 3.6 50.5 3.7Q50.4 3.85 50.35 3.95L50.35 3.95Q50.3 4.1 50.3 4.4L50.3 4.4 50.3 8.75Q50.75 8.05 51.45 7.65L51.45 7.65Q52.15 7.25 52.85 7.25L52.85 7.25Q54.45 7.25 55.4 8.35L55.4 8.35Q56.35 9.5 56.35 11.6L56.35 11.6Q56.35 13.05 55.85 14.1L55.85 14.1Q55.35 15.15 54.5 15.65L54.5 15.65Q53.7 16.15 52.8 16.15ZM52.65 14.95L52.65 14.95Q53.65 14.95 54.3 14.15L54.3 14.15Q54.95 13.4 54.95 11.7L54.95 11.7Q54.95 10.05 54.35 9.25L54.35 9.25Q53.7 8.4 52.65 8.4L52.65 8.4Q51.6 8.4 50.95 9.35L50.95 9.35Q50.3 10.25 50.3 11.75L50.3 11.75Q50.3 14.95 52.65 14.95ZM81 0L79.5 0 79.5-29.5 81-29.5 81 0ZM88.5 0L87 0 87-29.5 88.5-29.5 88.5 0ZM91.5 0L90 0 90-29.5 91.5-29.5 91.5 0ZM99 0L97.5 0 97.5-29.5 99-29.5 99 0ZM106.5 0L105 0 105-29.5 106.5-29.5 106.5 0ZM112.5 0L108 0 108-29.5 112.5-29.5 112.5 0ZM115.5 0L114 0 114-29.5 115.5-29.5 115.5 0ZM118.5 0L117 0 117-29.5 118.5-29.5 118.5 0ZM129 0L124.5 0 124.5-29.5 129-29.5 129 0ZM132 0L130.5 0 130.5-29.5 132-29.5 132 0ZM103.2 15.95L103.2 3.6 104.7 3.6 104.7 3.7Q104.55 3.85 104.55 3.95L104.55 3.95Q104.5 4.1 104.5 4.4L104.5 4.4 104.5 8.95Q105 8.2 105.75 7.7L105.75 7.7Q106.5 7.25 107.3 7.25L107.3 7.25Q108.5 7.25 109.2 8.1L109.2 8.1Q109.9 8.95 109.9 10.8L109.9 10.8 109.9 15.95 108.59 15.95 108.59 10.85Q108.59 9.55 108.15 9L108.15 9Q107.7 8.4 107 8.4L107 8.4Q106.4 8.4 105.84 8.75L105.84 8.75Q105.25 9.05 104.9 9.7L104.9 9.7Q104.5 10.3 104.5 11.05L104.5 11.05 104.5 15.95 103.2 15.95ZM134.99 0L133.49 0 133.49-29.5 134.99-29.5 134.99 0ZM142.49 0L140.99 0 140.99-29.5 142.49-29.5 142.49 0ZM145.49 0L143.99 0 143.99-29.5 145.49-29.5 145.49 0ZM152.99 0L151.49 0 151.49-29.5 152.99-29.5 152.99 0ZM160.49 0L158.99 0 158.99-29.5 160.49-29.5 160.49 0ZM166.49 0L161.99 0 161.99-29.5 166.49-29.5 166.49 0ZM169.49 0L167.99 0 167.99-29.5 169.49-29.5 169.49 0ZM172.49 0L170.99 0 170.99-29.5 172.49-29.5 172.49 0ZM179.99 0L178.49 0 178.49-29.5 179.99-29.5 179.99 0ZM185.99 0L181.49 0 181.49-29.5 185.99-29.5 185.99 0ZM160.39 7.25L160.39 7.25Q162.19 7.25 163.14 8.2L163.14 8.2Q164.09 9.15 164.09 11.45L164.09 11.45 164.09 15.95 162.64 15.95 162.64 14.65Q161.89 16.15 159.74 16.15L159.74 16.15Q158.34 16.15 157.54 15.5L157.54 15.5Q156.74 14.85 156.74 13.8L156.74 13.8Q156.74 12.9 157.34 12.25L157.34 12.25Q157.89 11.6 158.89 11.2L158.89 11.2Q159.84 10.85 161.04 10.85L161.04 10.85Q162.09 10.85 162.94 10.95L162.94 10.95Q162.84 9.55 162.19 8.95L162.19 8.95Q161.54 8.35 160.29 8.35L160.29 8.35Q159.64 8.35 159.09 8.6L159.09 8.6Q158.49 8.85 157.99 9.3L157.99 9.3 157.34 8.45Q158.54 7.25 160.39 7.25ZM159.89 15.15L159.89 15.15Q161.29 15.15 162.09 14.3L162.09 14.3Q162.89 13.5 162.94 12L162.94 12Q162.09 11.85 161.14 11.85L161.14 11.85Q159.74 11.85 158.89 12.35L158.89 12.35Q158.09 12.8 158.09 13.75L158.09 13.75Q158.09 15.15 159.89 15.15ZM188.99 0L187.49 0 187.49-29.5 188.99-29.5 188.99 0ZM196.49 0L194.99 0 194.99-29.5 196.49-29.5 196.49 0ZM199.49 0L197.99 0 197.99-29.5 199.49-29.5 199.49 0ZM206.99 0L205.49 0 205.49-29.5 206.99-29.5 206.99 0ZM214.49 0L212.99 0 212.99-29.5 214.49-29.5 214.49 0ZM220.49 0L215.99 0 215.99-29.5 220.49-29.5 220.49 0ZM227.99 0L226.49 0 226.49-29.5 227.99-29.5 227.99 0ZM233.99 0L229.49 0 229.49-29.5 233.99-29.5 233.99 0ZM236.99 0L235.49 0 235.49-29.5 236.99-29.5 236.99 0ZM239.99 0L238.49 0 238.49-29.5 239.99-29.5 239.99 0ZM216.74 7.45L218.09 7.45Q217.94 8.2 217.74 8.95L217.74 8.95Q217.49 9.7 217.09 10.95L217.09 10.95 214.94 16.9Q214.54 18.1 213.84 18.65L213.84 18.65Q213.14 19.2 212.19 19.2L212.19 19.2Q210.99 19.2 210.24 18.45L210.24 18.45 210.84 17.55 210.94 17.4 211.04 17.45Q211.09 17.65 211.19 17.75L211.19 17.75Q211.29 17.9 211.54 18L211.54 18Q211.89 18.1 212.29 18.1L212.29 18.1Q212.94 18.1 213.39 17.6L213.39 17.6Q213.79 17.1 214.19 16L214.19 16 210.69 7.45 212.09 7.45 214.74 14.25 215.84 10.85Q216.24 9.55 216.44 8.9L216.44 8.9Q216.64 8.2 216.74 7.45L216.74 7.45Z" opacity="1" transform="matrix(1,0,0,1,0,0)" fill="#f6f6f6" class="wordmark-text-0" data-fill-palette-color="primary" id="text-0"></path></svg></g></svg></g></svg></g></svg></g><g transform="matrix(1,0,0,1,0,0.20064399999999694)"><svg viewBox="0 0 92.0904823128136 80.2576" height="80.2576" width="92.0904823128136"><g><svg xmlns="http://www.w3.org/2000/svg" xmlns:xlink="http://www.w3.org/1999/xlink" version="1.0" x="0" y="0" viewBox="1.118 4.1185758 47.921 41.76353899999999" enable-background="new 0 0 50 50" xml:space="preserve" height="80.2576" width="92.0904823128136" class="icon-icon-0" data-fill-palette-color="accent" id="icon-0"><g fill="#f6f6f6" data-fill-palette-color="accent"><g fill="#f6f6f6" data-fill-palette-color="accent"><polygon fill="#f6f6f6" points="10.821,24.951 21,32.193 21,39.035 1.118,24.891 21,11.118 21,17.9   " data-fill-palette-color="accent"></polygon></g><g fill="#f6f6f6" data-fill-palette-color="accent"><polygon fill="#f6f6f6" points="49.039,25.277 35.815,16.063 34.219,21.712 39.475,25.338 31.411,30.97 29,38.79 29,39.424   " data-fill-palette-color="accent"></polygon></g><rect x="25.577" y="3.983" transform="matrix(0.9606 0.278 -0.278 0.9606 8.0575 -6.8179)" fill="#f6f6f6" width="4.981" height="42.035" data-fill-palette-color="accent"></rect></g></svg></g></svg></g></svg></g><defs></defs></svg><rect width="395.52" height="59.883028685417976" fill="none" stroke="none" visibility="hidden"></rect></g></svg></g></svg>